<mxfile host="app.diagrams.net" modified="2023-03-04T13:33:05.306Z" agent="5.0 (Macintosh; Intel Mac OS X 10_14_6) AppleWebKit/605.1.15 (KHTML, like Gecko) Version/14.1.2 Safari/605.1.15" etag="rpN8-fSmOtPrlx8_1dJb" version="21.0.2" type="github">
  <diagram name="Страница 1" id="DrNtkFW8OOAyjXwriSfT">
    <mxGraphModel dx="2068" dy="1101" grid="1" gridSize="10" guides="1" tooltips="1" connect="1" arrows="1" fold="1" page="1" pageScale="1" pageWidth="827" pageHeight="1169" math="0" shadow="0">
      <root>
        <mxCell id="0" />
        <mxCell id="1" parent="0" />
        <mxCell id="E3ZtQgOo_2V0chC50kuB-8" value="" style="shape=datastore;whiteSpace=wrap;html=1;" vertex="1" parent="1">
          <mxGeometry x="170" y="70" width="170" height="490" as="geometry" />
        </mxCell>
        <mxCell id="E3ZtQgOo_2V0chC50kuB-1" value="" style="shape=actor;whiteSpace=wrap;html=1;" vertex="1" parent="1">
          <mxGeometry x="70" y="350" width="40" height="60" as="geometry" />
        </mxCell>
        <mxCell id="E3ZtQgOo_2V0chC50kuB-2" value="АБС" style="rounded=1;whiteSpace=wrap;html=1;" vertex="1" parent="1">
          <mxGeometry x="200" y="210" width="120" height="60" as="geometry" />
        </mxCell>
        <mxCell id="E3ZtQgOo_2V0chC50kuB-3" value="Заемщик" style="text;strokeColor=none;fillColor=none;html=1;fontSize=24;fontStyle=1;verticalAlign=middle;align=center;" vertex="1" parent="1">
          <mxGeometry x="40" y="290" width="100" height="40" as="geometry" />
        </mxCell>
        <mxCell id="E3ZtQgOo_2V0chC50kuB-4" value="Данные партнеров" style="rounded=1;whiteSpace=wrap;html=1;" vertex="1" parent="1">
          <mxGeometry x="200" y="290" width="120" height="60" as="geometry" />
        </mxCell>
        <mxCell id="E3ZtQgOo_2V0chC50kuB-5" value="Открытые источники" style="rounded=1;whiteSpace=wrap;html=1;" vertex="1" parent="1">
          <mxGeometry x="200" y="380" width="120" height="60" as="geometry" />
        </mxCell>
        <mxCell id="E3ZtQgOo_2V0chC50kuB-6" value="Данные кредитных бюро" style="rounded=1;whiteSpace=wrap;html=1;" vertex="1" parent="1">
          <mxGeometry x="200" y="460" width="120" height="60" as="geometry" />
        </mxCell>
      </root>
    </mxGraphModel>
  </diagram>
</mxfile>
